<svg xmlns="http://www.w3.org/2000/svg" id="svg-draw" viewBox="0 0 670 500" x="0px" y="0px" width="100%" height="100%" xmlns:xml="http://www.w3.org/XML/1998/namespace" xml:space="preserve" xmlns:xlink="http://www.w3.org/1999/xlink" version="1.1" xmlns:svgjs="http://svgjs.com/svgjs">
	<g id="svg-content">
		<g class="svg-element" id="svg-logo" style="cursor: pointer;" transform="matrix(0.480964 0 0 0.480964 207.886 201.603)">
<g>
	<g>
		<path id="XMLID_9_" fill="#81b444" d="M 133.349 5.554 c 23.791 8.197 36.986 18.893 34.487 20.792 c -2.499 1.899 -2.899 2.099 -7.997 0.6 c -5.298 -1.499 -22.692 -3.799 -29.489 0 c -6.797 3.799 -16.994 18.493 -8.197 37.286 c 8.797 18.693 8.597 27.59 5.298 29.489 c -3.399 1.899 -8.597 4.198 -26.89 -17.294 C 67.973 37.942 39.584 31.144 22.69 34.343 c 0 0 11.996 -12.995 33.488 -24.191 C 77.669 -0.744 107.058 -3.643 133.349 5.554 Z" />
		<path id="XMLID_8_" fill="#208841" d="M 19.791 38.242 c 0 0 12.995 -3.399 20.992 0 c 0 0 -7.397 2.899 -14.095 13.495 c -3.799 6.298 -7.397 7.797 -9.896 7.597 C 14.293 59.034 9.895 52.536 19.791 38.242 Z" />
		<path id="XMLID_7_" fill="#81b444" d="M 71.272 52.736 c 0 9.297 -8.597 18.093 -19.393 19.593 c -10.696 1.499 -19.393 -4.598 -19.393 -13.895 s 8.597 -18.093 19.393 -19.593 C 62.475 37.342 71.272 43.44 71.272 52.736 Z" />
	</g>
	<g>
		<path id="XMLID_6_" fill="#d8552f" d="M 164.137 175.79 c -19.393 16.194 -35.387 22.092 -35.587 18.893 c -0.2 -3.199 -0.4 -3.599 3.599 -7.397 c 3.999 -3.799 14.894 -17.693 15.194 -25.291 c 0.2 -7.597 -7.197 -24.191 -27.79 -26.29 s -27.99 -6.698 -27.99 -10.496 c 0 -3.799 0.6 -9.496 28.589 -14.295 c 49.682 -8.397 70.274 -29.289 75.972 -45.483 c 0 0 5.098 16.994 3.599 40.985 C 197.925 131.007 185.529 157.897 164.137 175.79 Z" />
		<path id="XMLID_5_" fill="#b0482f" d="M 194.226 61.333 c 0 0 -3.799 12.795 -10.696 18.093 c 0 0 1.299 -7.797 -4.398 -18.893 c -3.599 -6.498 -2.899 -10.296 -1.499 -12.395 C 179.032 46.039 187.029 45.839 194.226 61.333 Z" />
		<path id="XMLID_4_" fill="#d8552f" d="M 155.241 98.219 c -7.997 -4.798 -10.896 -16.594 -6.698 -26.69 c 4.198 -10.096 14.095 -14.295 21.892 -9.496 c 7.997 4.798 10.896 16.594 6.698 26.69 C 173.134 98.619 163.238 103.017 155.241 98.219 Z" />
	</g>
	<g>
		<path id="XMLID_3_" fill="#2e97c4" d="M 2.697 117.912 c -4.798 -24.591 -2.299 -41.685 0.6 -40.385 c 2.899 1.3 3.399 1.499 4.598 6.498 c 1.499 5.298 8.197 21.692 14.695 25.491 s 24.591 5.498 36.386 -11.596 c 11.796 -16.994 19.593 -21.292 22.692 -19.393 c 3.399 1.899 7.997 5.298 -1.499 31.988 c -16.794 47.582 -8.397 75.572 2.899 88.367 c 0 0 -17.294 -3.799 -37.686 -16.794 C 25.489 169.493 7.995 145.502 2.697 117.912 Z" />
		<path id="XMLID_2_" fill="#186ba4" d="M 88.165 199.781 c 0 0 -9.496 -9.696 -10.696 -18.293 c 0 0 6.098 4.798 18.693 5.298 c 7.397 0 10.496 2.299 11.596 4.798 C 108.958 194.084 105.359 201.081 88.165 199.781 Z" />
		<path id="XMLID_1_" fill="#2e97c4" d="M 74.87 148.001 c 7.997 -4.598 19.993 -1.499 26.69 6.897 c 6.698 8.397 5.698 19.193 -2.299 23.791 s -19.993 1.499 -26.69 -6.897 C 65.874 163.395 66.873 152.699 74.87 148.001 Z" />
	</g>
</g>
</g>
		<g class="svg-element" id="svg-name" style="cursor: pointer;" transform="matrix(1 0 0 1 338.937 217.215)"><g fill="#3e3a39" transform="matrix(1 0 0 1 0 0)"><path d="M 13.09 35.9 L 27.73 35.9 L 27.73 42.54 L 11.13 42.54 L 11.13 42.54 Q 2.54 42.54 2.54 34.53 L 2.54 34.53 L 2.54 2.11 L 10.35 2.11 L 10.35 33.16 L 10.35 33.16 Q 10.35 35.9 13.09 35.9 L 13.09 35.9 Z M 59.57 10.7 L 59.57 10.7 L 59.57 35.12 L 59.57 35.12 Q 59.18 42.15 51.37 42.54 L 51.37 42.54 L 31.25 42.54 L 31.25 2.11 L 50 2.11 L 50 2.11 Q 59.18 2.7 59.57 10.7 M 39.06 35.9 L 51.76 35.9 L 51.76 14.61 L 51.76 14.61 Q 51.17 9.73 45.31 9.14 L 45.31 9.14 L 39.06 9.14 L 39.06 35.9 Z M 75.2 35.9 L 89.84 35.9 L 89.84 42.54 L 73.24 42.54 L 73.24 42.54 Q 64.65 42.54 64.65 34.53 L 64.65 34.53 L 64.65 2.11 L 72.46 2.11 L 72.46 33.16 L 72.46 33.16 Q 72.46 35.9 75.2 35.9 L 75.2 35.9 Z" /></g></g>
		<g class="svg-element" id="svg-slogan" style="cursor: pointer;" transform="matrix(1 0 0 1 338.937 279.5)" />
		<g class="svg-element" id="svg-atext" style="cursor: pointer;" transform="matrix(1 0 0 1 334.5 249.5)" />
	</g>
<defs id="SvgjsDefs1029" /><g id="svg-ghost" transform="matrix(1 0 0 1 0 0)" /></svg>